<svg xmlns="http://www.w3.org/2000/svg" xmlns:xlink="http://www.w3.org/1999/xlink" width="500" zoomAndPan="magnify" viewBox="0 0 375 374.999991" height="500" preserveAspectRatio="xMidYMid meet" version="1.0"><defs><clipPath id="90e7cdff1c"><path d="M 142.472656 109.621094 L 232.675781 109.621094 L 232.675781 199.125 L 142.472656 199.125 Z M 142.472656 109.621094 " clip-rule="nonzero"/></clipPath><clipPath id="ec2e37731b"><path d="M 159.722656 109.621094 L 215.277344 109.621094 C 224.804688 109.621094 232.527344 117.34375 232.527344 126.871094 L 232.527344 181.875 C 232.527344 191.402344 224.804688 199.125 215.277344 199.125 L 159.722656 199.125 C 150.195312 199.125 142.472656 191.402344 142.472656 181.875 L 142.472656 126.871094 C 142.472656 117.34375 150.195312 109.621094 159.722656 109.621094 Z M 159.722656 109.621094 " clip-rule="nonzero"/></clipPath><clipPath id="8562f305cf"><path d="M 145.902344 113.324219 L 229 113.324219 L 229 195.421875 L 145.902344 195.421875 Z M 145.902344 113.324219 " clip-rule="nonzero"/></clipPath><clipPath id="6a83f73d47"><path d="M 163.152344 113.324219 L 211.847656 113.324219 C 221.375 113.324219 229.097656 121.046875 229.097656 130.574219 L 229.097656 178.171875 C 229.097656 187.699219 221.375 195.421875 211.847656 195.421875 L 163.152344 195.421875 C 153.625 195.421875 145.902344 187.699219 145.902344 178.171875 L 145.902344 130.574219 C 145.902344 121.046875 153.625 113.324219 163.152344 113.324219 Z M 163.152344 113.324219 " clip-rule="nonzero"/></clipPath><clipPath id="edcb5395d3"><path d="M 182 123.050781 L 193 123.050781 L 193 131 L 182 131 Z M 182 123.050781 " clip-rule="nonzero"/></clipPath><clipPath id="1bed182ecb"><path d="M 177 123.050781 L 187 123.050781 L 187 137 L 177 137 Z M 177 123.050781 " clip-rule="nonzero"/></clipPath><clipPath id="2d7015c8d3"><path d="M 187 135 L 226.226562 135 L 226.226562 181 L 187 181 Z M 187 135 " clip-rule="nonzero"/></clipPath><clipPath id="5193e7ea26"><path d="M 150.476562 146 L 158 146 L 158 162 L 150.476562 162 Z M 150.476562 146 " clip-rule="nonzero"/></clipPath><clipPath id="4b1cc9c4dc"><path d="M 180 123.050781 L 191 123.050781 L 191 131 L 180 131 Z M 180 123.050781 " clip-rule="nonzero"/></clipPath><clipPath id="425ba9101a"><path d="M 175 123.050781 L 185 123.050781 L 185 137 L 175 137 Z M 175 123.050781 " clip-rule="nonzero"/></clipPath><clipPath id="b7ea405fca"><path d="M 185 135 L 224.378906 135 L 224.378906 180 L 185 180 Z M 185 135 " clip-rule="nonzero"/></clipPath><clipPath id="466b8e9ca9"><path d="M 148.628906 146 L 157 146 L 157 161 L 148.628906 161 Z M 148.628906 146 " clip-rule="nonzero"/></clipPath></defs><g clip-path="url(#90e7cdff1c)"><g clip-path="url(#ec2e37731b)"><path fill="#ff8210" d="M 142.472656 109.621094 L 232.675781 109.621094 L 232.675781 199.125 L 142.472656 199.125 Z M 142.472656 109.621094 " fill-opacity="1" fill-rule="nonzero"/></g></g><g clip-path="url(#8562f305cf)"><g clip-path="url(#6a83f73d47)"><path fill="#ed5f1e" d="M 145.902344 113.324219 L 228.960938 113.324219 L 228.960938 195.421875 L 145.902344 195.421875 Z M 145.902344 113.324219 " fill-opacity="1" fill-rule="nonzero"/></g></g><g clip-path="url(#edcb5395d3)"><path fill="#000000" d="M 182.378906 123.066406 C 183.246094 123.367188 184.148438 123.539062 185.0625 123.59375 C 186.039062 123.671875 187.027344 123.613281 188 123.75 C 189.019531 123.90625 189.9375 124.449219 190.71875 125.109375 C 191.972656 126.105469 192.433594 127.851562 192.222656 129.398438 C 192.132812 129.90625 191.96875 130.507812 191.472656 130.753906 C 191.027344 130.953125 190.574219 130.601562 190.390625 130.207031 C 189.980469 129.46875 190.269531 128.550781 189.835938 127.824219 C 189.707031 127.585938 189.472656 127.4375 189.226562 127.347656 C 189.3125 127.753906 189.433594 128.195312 189.257812 128.597656 C 189.125 128.941406 188.734375 129.148438 188.375 129.089844 C 187.949219 129.035156 187.660156 128.664062 187.484375 128.296875 C 187.191406 127.738281 187.152344 127.085938 186.875 126.519531 C 186.546875 125.796875 186.019531 125.089844 185.234375 124.859375 C 184.191406 124.453125 183.050781 124.019531 182.378906 123.066406 Z M 182.378906 123.066406 " fill-opacity="1" fill-rule="nonzero"/></g><g clip-path="url(#1bed182ecb)"><path fill="#000000" d="M 178.523438 124.96875 C 178.761719 124.296875 179.039062 123.617188 179.492188 123.058594 C 180.585938 124.683594 182.480469 125.46875 184.285156 126 C 185.410156 127.164062 186.191406 128.703125 186.328125 130.332031 C 186.441406 131.472656 186.257812 132.613281 185.992188 133.714844 C 183.742188 133.421875 181.570312 134.589844 180 136.128906 C 178.710938 134.785156 178 132.960938 177.804688 131.117188 C 177.585938 129.046875 177.847656 126.933594 178.523438 124.96875 Z M 178.523438 124.96875 " fill-opacity="1" fill-rule="nonzero"/></g><path fill="#000000" d="M 183.242188 136.085938 C 184.101562 135.703125 185.023438 135.375 185.980469 135.417969 C 185.984375 136.230469 185.988281 137.039062 185.976562 137.847656 C 184.929688 138.160156 183.96875 138.710938 183.078125 139.339844 C 182.613281 139.6875 182.117188 140.019531 181.761719 140.488281 C 181.640625 140.636719 181.527344 140.796875 181.363281 140.902344 C 181.191406 139.9375 181.019531 138.96875 180.855469 138.003906 C 181.523438 137.222656 182.304688 136.515625 183.242188 136.085938 Z M 183.242188 136.085938 " fill-opacity="1" fill-rule="nonzero"/><g clip-path="url(#2d7015c8d3)"><path fill="#000000" d="M 198.441406 136.316406 C 201.03125 135.699219 203.710938 135.402344 206.367188 135.613281 C 210.035156 135.902344 213.597656 137.191406 216.695312 139.179688 C 218.832031 140.527344 220.765625 142.230469 222.253906 144.289062 C 224.957031 147.972656 226.230469 152.636719 226.035156 157.199219 C 225.9375 159.046875 225.632812 160.910156 224.902344 162.621094 C 224.460938 163.667969 223.742188 164.574219 222.925781 165.351562 C 221.890625 166.328125 220.578125 167.027344 219.167969 167.234375 C 217.152344 167.546875 215.082031 166.949219 213.378906 165.863281 C 212.59375 165.371094 211.949219 164.6875 211.15625 164.210938 C 209.796875 163.335938 208.152344 162.882812 206.539062 163.085938 C 205.082031 163.242188 203.707031 163.824219 202.433594 164.535156 C 201.046875 165.320312 199.894531 166.578125 199.351562 168.097656 C 199.058594 168.910156 198.957031 169.84375 199.300781 170.65625 C 199.550781 171.277344 200.089844 171.75 200.707031 171.984375 C 201.480469 172.292969 202.328125 172.28125 203.144531 172.21875 C 204.230469 172.21875 205.339844 172.699219 206.027344 173.5625 C 206.5625 174.242188 206.675781 175.179688 206.46875 176.007812 C 206.0625 177.632812 204.917969 178.910156 203.851562 180.136719 C 203.273438 179.667969 202.792969 179.09375 202.253906 178.585938 C 198.382812 174.710938 194.5 170.84375 190.683594 166.917969 C 190.171875 162.773438 189.738281 158.613281 189.257812 154.464844 C 188.746094 149.933594 188.238281 145.402344 187.722656 140.875 C 191.046875 138.832031 194.652344 137.226562 198.441406 136.316406 M 197.796875 139.933594 C 197.292969 140.105469 196.914062 140.503906 196.597656 140.921875 C 196.367188 141.226562 196 141.429688 195.617188 141.417969 C 195.070312 141.410156 194.589844 141.125 194.097656 140.921875 C 193.441406 140.65625 192.613281 141.058594 192.425781 141.75 C 192.28125 142.210938 192.472656 142.683594 192.679688 143.089844 C 192.832031 143.410156 193.054688 143.804688 192.839844 144.148438 C 192.609375 144.425781 192.324219 144.664062 192.167969 144.996094 C 191.933594 145.40625 191.910156 145.988281 192.285156 146.324219 C 192.71875 146.6875 193.332031 146.84375 193.640625 147.351562 C 193.769531 147.585938 193.5625 147.8125 193.507812 148.035156 C 193.292969 148.832031 193.71875 149.757812 194.46875 150.09375 C 195.042969 150.355469 195.703125 150.277344 196.28125 150.074219 C 196.683594 149.933594 197.078125 149.675781 197.257812 149.269531 C 197.492188 148.785156 197.375 148.226562 197.511719 147.722656 C 197.570312 147.464844 197.800781 147.285156 198.054688 147.253906 C 198.878906 147.117188 199.765625 147.035156 200.472656 146.539062 C 200.914062 146.238281 201.152344 145.683594 201.09375 145.152344 C 201.042969 144.667969 200.917969 144.128906 200.503906 143.832031 C 200.140625 143.542969 199.648438 143.527344 199.277344 143.261719 C 199.011719 143.003906 199.199219 142.609375 199.332031 142.332031 C 199.640625 141.75 199.605469 141 199.234375 140.457031 C 198.9375 139.988281 198.324219 139.730469 197.796875 139.933594 M 208.152344 139.933594 C 207.695312 140.089844 207.296875 140.480469 207.242188 140.976562 C 207.195312 141.347656 207.503906 141.652344 207.464844 142.027344 C 207.46875 142.378906 207.136719 142.597656 206.832031 142.671875 C 206.371094 142.78125 205.945312 143.109375 205.816406 143.582031 C 205.613281 144.246094 206.039062 144.96875 206.65625 145.226562 C 207.191406 145.457031 207.816406 145.664062 208.140625 146.195312 C 208.28125 146.433594 208.179688 146.722656 207.984375 146.894531 C 207.375 147.511719 207.117188 148.5 207.472656 149.3125 C 207.816406 150.105469 208.507812 150.777344 209.351562 150.984375 C 210.488281 151.265625 211.742188 150.570312 212.164062 149.484375 C 212.332031 149.027344 212.492188 148.535156 212.863281 148.203125 C 213.1875 147.902344 213.648438 147.839844 214.074219 147.847656 C 215.019531 147.875 215.945312 147.414062 216.5625 146.703125 C 216.96875 146.230469 217.25 145.578125 217.089844 144.949219 C 216.933594 144.304688 216.398438 143.84375 215.847656 143.53125 C 215.335938 143.242188 214.730469 143.273438 214.164062 143.273438 C 213.953125 143.261719 213.679688 143.28125 213.566406 143.0625 C 213.496094 142.753906 213.664062 142.464844 213.773438 142.1875 C 213.984375 141.683594 214.011719 141.0625 213.707031 140.589844 C 213.523438 140.304688 213.175781 140.160156 212.847656 140.195312 C 212.335938 140.242188 211.886719 140.519531 211.472656 140.804688 C 211.054688 141.09375 210.476562 141.121094 210.035156 140.875 C 209.695312 140.714844 209.472656 140.410156 209.226562 140.144531 C 208.953125 139.855469 208.507812 139.800781 208.152344 139.933594 M 216.636719 151.234375 C 216.144531 151.367188 215.878906 151.886719 215.835938 152.363281 C 215.746094 152.949219 216 153.601562 215.65625 154.136719 C 215.507812 154.402344 215.179688 154.40625 214.914062 154.441406 C 214.398438 154.507812 213.921875 154.886719 213.789062 155.402344 C 213.578125 156.109375 213.992188 156.898438 214.636719 157.210938 C 215.308594 157.484375 215.976562 158.105469 215.890625 158.898438 C 215.753906 159.5625 216.023438 160.269531 216.503906 160.730469 C 217.058594 161.277344 217.933594 161.421875 218.65625 161.164062 C 219.484375 160.816406 219.832031 159.839844 219.820312 158.996094 C 219.832031 158.625 219.550781 158.332031 219.550781 157.964844 C 219.523438 157.601562 219.664062 157.183594 220.011719 157.015625 C 220.363281 156.828125 220.769531 156.957031 221.148438 156.898438 C 221.683594 156.835938 222.164062 156.5 222.4375 156.039062 C 222.867188 155.316406 222.855469 154.300781 222.28125 153.664062 C 221.925781 153.257812 221.367188 153.109375 220.847656 153.101562 C 220.265625 153.070312 219.632812 153.191406 219.105469 152.878906 C 218.671875 152.636719 218.554688 152.109375 218.214844 151.78125 C 217.816406 151.363281 217.214844 151.078125 216.636719 151.234375 M 200.757812 155.761719 C 199.578125 156.035156 198.445312 156.597656 197.585938 157.460938 C 196.875 158.230469 196.253906 159.089844 195.789062 160.03125 C 195.128906 161.367188 194.808594 162.921875 195.117188 164.398438 C 195.304688 165.167969 195.796875 165.941406 196.578125 166.199219 C 196.9375 166.335938 197.421875 166.230469 197.589844 165.851562 C 198.246094 164.609375 199.09375 163.4375 200.222656 162.589844 C 201.378906 161.710938 202.777344 161.226562 204.179688 160.914062 C 204.855469 160.789062 205.457031 160.316406 205.734375 159.683594 C 206.042969 159.011719 205.972656 158.203125 205.613281 157.570312 C 205.222656 156.867188 204.566406 156.34375 203.851562 156.007812 C 202.886719 155.5625 201.78125 155.53125 200.757812 155.761719 Z M 200.757812 155.761719 " fill-opacity="1" fill-rule="nonzero"/></g><path fill="#000000" d="M 161.292969 141.691406 C 163.195312 139.9375 165.792969 139.070312 168.355469 139.09375 C 168.523438 141.921875 168.910156 144.796875 170.109375 147.390625 C 169.007812 148.503906 168.445312 150.003906 167.839844 151.421875 C 167.589844 152.039062 167.367188 152.667969 167.175781 153.304688 C 165.328125 152.734375 163.457031 152.1875 161.527344 151.992188 C 160.273438 151.859375 159.003906 151.898438 157.761719 152.117188 C 157.140625 148.347656 158.46875 144.265625 161.292969 141.691406 Z M 161.292969 141.691406 " fill-opacity="1" fill-rule="nonzero"/><path fill="#000000" d="M 181.890625 143.167969 C 182.5625 141.382812 184.179688 140.0625 185.984375 139.550781 C 187.007812 148.675781 188.03125 157.796875 189.054688 166.921875 C 189.089844 167.128906 189.046875 167.386719 189.230469 167.53125 C 193.238281 171.65625 197.234375 175.789062 201.25 179.90625 C 202.042969 180.71875 202.894531 181.519531 203.402344 182.558594 C 203.671875 183.097656 203.800781 183.734375 203.613281 184.320312 C 203.402344 184.921875 202.933594 185.410156 202.386719 185.71875 C 201.796875 186.046875 201.0625 185.988281 200.464844 185.710938 C 199.457031 185.25 198.664062 184.441406 197.898438 183.660156 C 195.285156 181.039062 192.679688 178.414062 190.058594 175.796875 C 190.257812 177.792969 190.511719 179.78125 190.714844 181.773438 C 190.769531 182.691406 190.796875 183.636719 190.515625 184.519531 C 190.359375 185.019531 190.019531 185.484375 189.527344 185.691406 C 188.878906 185.953125 188.078125 185.902344 187.515625 185.464844 C 186.972656 185.046875 186.660156 184.410156 186.441406 183.773438 C 186.03125 182.582031 185.96875 181.316406 185.824219 180.074219 C 185.488281 176.894531 185.136719 173.714844 184.8125 170.53125 C 180.496094 166.164062 176.144531 161.828125 171.859375 157.425781 C 172.390625 155.554688 173.058594 153.679688 174.21875 152.105469 C 177.453125 155.40625 180.675781 158.722656 183.898438 162.035156 C 183.230469 155.746094 182.539062 149.457031 181.890625 143.167969 Z M 181.890625 143.167969 " fill-opacity="1" fill-rule="nonzero"/><g clip-path="url(#5193e7ea26)"><path fill="#000000" d="M 151.445312 151.871094 C 152.429688 149.644531 154.101562 147.796875 155.953125 146.257812 C 155.511719 147.375 155.417969 148.59375 155.335938 149.785156 C 155.253906 151.777344 155.335938 153.828125 156.019531 155.714844 C 156.289062 156.519531 156.871094 157.152344 157.261719 157.894531 C 157.570312 158.472656 157.84375 159.101562 157.875 159.769531 C 157.898438 160.191406 157.757812 160.664062 157.386719 160.902344 C 157.074219 161.109375 156.671875 161.035156 156.34375 160.910156 C 155.6875 160.648438 155.21875 160.039062 155.023438 159.371094 C 154.855469 158.855469 154.855469 158.308594 154.855469 157.773438 C 154.828125 157.058594 154.6875 156.332031 154.335938 155.707031 C 154.226562 155.5 154.0625 155.328125 153.867188 155.203125 C 153.589844 155.914062 153.851562 156.667969 153.90625 157.390625 C 153.933594 157.757812 153.96875 158.207031 153.664062 158.472656 C 153.261719 158.75 152.726562 158.636719 152.324219 158.410156 C 151.597656 157.996094 151.144531 157.222656 150.910156 156.4375 C 150.480469 154.914062 150.824219 153.285156 151.445312 151.871094 Z M 151.445312 151.871094 " fill-opacity="1" fill-rule="nonzero"/></g><path fill="#000000" d="M 179.574219 147.382812 C 179.738281 147.1875 179.886719 146.96875 180.105469 146.828125 C 180.496094 150.171875 180.890625 153.515625 181.273438 156.863281 C 179.921875 155.492188 178.574219 154.125 177.21875 152.761719 C 177.015625 152.535156 176.761719 152.34375 176.597656 152.085938 C 177.464844 150.445312 178.402344 148.828125 179.574219 147.382812 Z M 179.574219 147.382812 " fill-opacity="1" fill-rule="nonzero"/><path fill="#000000" d="M 169.441406 151.699219 C 169.8125 150.695312 170.578125 149.921875 171.285156 149.148438 C 171.871094 149.746094 172.472656 150.324219 173.050781 150.925781 C 171.871094 152.5 171.300781 154.417969 170.699219 156.269531 C 170.101562 155.675781 169.515625 155.074219 168.925781 154.480469 C 168.960938 153.535156 169.128906 152.59375 169.441406 151.699219 Z M 169.441406 151.699219 " fill-opacity="1" fill-rule="nonzero"/><path fill="#000000" d="M 173.523438 161.535156 C 176.703125 164.6875 179.898438 167.820312 183.0625 170.980469 C 183.285156 172.636719 183.417969 174.3125 183.609375 175.976562 C 183.832031 178.097656 184.054688 180.21875 184.28125 182.339844 C 181.480469 181.195312 178.964844 179.40625 176.847656 177.246094 C 174.671875 174.976562 173.535156 171.875 173.210938 168.773438 C 172.949219 166.363281 173.105469 163.917969 173.523438 161.535156 M 179.082031 170.925781 C 178.625 171.03125 178.414062 171.570312 177.925781 171.609375 C 177.460938 171.78125 177.058594 171.300781 176.601562 171.464844 C 176.109375 171.632812 175.914062 172.332031 176.234375 172.742188 C 176.492188 173.105469 177.070312 172.878906 177.316406 173.261719 C 177.59375 173.824219 176.898438 174.277344 177.019531 174.839844 C 177.144531 175.480469 177.882812 175.941406 178.5 175.71875 C 178.773438 175.625 178.945312 175.335938 179.242188 175.300781 C 179.523438 175.386719 179.769531 175.585938 180.074219 175.589844 C 180.683594 175.628906 181.164062 174.917969 180.945312 174.355469 C 180.851562 174.0625 180.480469 173.945312 180.464844 173.621094 C 180.441406 173.121094 180.867188 172.699219 180.765625 172.1875 C 180.617188 171.445312 179.882812 170.703125 179.082031 170.925781 Z M 179.082031 170.925781 " fill-opacity="1" fill-rule="nonzero"/><path fill="#000000" d="M 192.453125 180.507812 C 193.394531 181.429688 194.332031 182.351562 195.269531 183.273438 C 195.40625 183.359375 195.269531 183.46875 195.171875 183.503906 C 194.347656 183.964844 193.386719 184.105469 192.453125 184.042969 C 192.457031 182.863281 192.457031 181.6875 192.453125 180.507812 Z M 192.453125 180.507812 " fill-opacity="1" fill-rule="nonzero"/><g clip-path="url(#4b1cc9c4dc)"><path fill="#aad4e6" d="M 180.59375 123.066406 C 181.457031 123.367188 182.363281 123.535156 183.28125 123.589844 C 184.257812 123.667969 185.246094 123.613281 186.21875 123.746094 C 187.242188 123.898438 188.164062 124.441406 188.945312 125.097656 C 190.203125 126.089844 190.664062 127.824219 190.453125 129.363281 C 190.363281 129.867188 190.195312 130.464844 189.699219 130.707031 C 189.253906 130.90625 188.800781 130.558594 188.617188 130.164062 C 188.207031 129.429688 188.496094 128.519531 188.0625 127.796875 C 187.929688 127.558594 187.695312 127.410156 187.449219 127.324219 C 187.539062 127.726562 187.660156 128.164062 187.484375 128.566406 C 187.347656 128.910156 186.957031 129.113281 186.597656 129.054688 C 186.171875 129.003906 185.878906 128.628906 185.703125 128.269531 C 185.410156 127.710938 185.371094 127.0625 185.09375 126.5 C 184.765625 125.78125 184.238281 125.078125 183.449219 124.847656 C 182.40625 124.445312 181.261719 124.015625 180.59375 123.066406 Z M 180.59375 123.066406 " fill-opacity="1" fill-rule="nonzero"/></g><g clip-path="url(#425ba9101a)"><path fill="#aad4e6" d="M 176.726562 124.957031 C 176.96875 124.289062 177.246094 123.617188 177.699219 123.058594 C 178.792969 124.675781 180.695312 125.453125 182.5 125.984375 C 183.628906 127.140625 184.410156 128.667969 184.546875 130.292969 C 184.660156 131.421875 184.476562 132.554688 184.210938 133.65625 C 181.957031 133.363281 179.78125 134.523438 178.207031 136.054688 C 176.914062 134.71875 176.203125 132.902344 176.007812 131.070312 C 175.789062 129.015625 176.050781 126.910156 176.726562 124.957031 Z M 176.726562 124.957031 " fill-opacity="1" fill-rule="nonzero"/></g><path fill="#aad4e6" d="M 181.453125 136.007812 C 182.316406 135.628906 183.242188 135.300781 184.199219 135.347656 C 184.199219 136.152344 184.207031 136.957031 184.195312 137.761719 C 183.144531 138.070312 182.183594 138.621094 181.292969 139.246094 C 180.824219 139.589844 180.328125 139.921875 179.972656 140.386719 C 179.851562 140.535156 179.734375 140.695312 179.570312 140.800781 C 179.402344 139.839844 179.230469 138.878906 179.066406 137.917969 C 179.730469 137.140625 180.515625 136.4375 181.453125 136.007812 Z M 181.453125 136.007812 " fill-opacity="1" fill-rule="nonzero"/><g clip-path="url(#b7ea405fca)"><path fill="#aad4e6" d="M 196.683594 136.238281 C 199.277344 135.628906 201.960938 135.332031 204.625 135.539062 C 208.300781 135.828125 211.867188 137.109375 214.972656 139.085938 C 217.109375 140.429688 219.046875 142.117188 220.539062 144.164062 C 223.246094 147.832031 224.523438 152.46875 224.328125 157 C 224.230469 158.839844 223.925781 160.691406 223.191406 162.390625 C 222.753906 163.433594 222.03125 164.335938 221.210938 165.109375 C 220.175781 166.078125 218.859375 166.773438 217.449219 166.980469 C 215.429688 167.292969 213.355469 166.695312 211.648438 165.617188 C 210.859375 165.128906 210.214844 164.449219 209.417969 163.972656 C 208.058594 163.101562 206.410156 162.652344 204.796875 162.855469 C 203.335938 163.011719 201.957031 163.589844 200.683594 164.296875 C 199.292969 165.078125 198.136719 166.328125 197.59375 167.839844 C 197.300781 168.648438 197.199219 169.574219 197.542969 170.382812 C 197.792969 171 198.335938 171.46875 198.953125 171.703125 C 199.726562 172.007812 200.578125 171.996094 201.394531 171.933594 C 202.484375 171.933594 203.59375 172.414062 204.28125 173.273438 C 204.820312 173.949219 204.933594 174.878906 204.722656 175.699219 C 204.320312 177.316406 203.171875 178.585938 202.101562 179.808594 C 201.523438 179.34375 201.042969 178.773438 200.503906 178.265625 C 196.625 174.414062 192.734375 170.566406 188.910156 166.664062 C 188.394531 162.542969 187.964844 158.40625 187.480469 154.28125 C 186.96875 149.777344 186.460938 145.273438 185.945312 140.769531 C 189.273438 138.742188 192.886719 137.144531 196.683594 136.238281 M 196.039062 139.835938 C 195.535156 140.007812 195.152344 140.40625 194.835938 140.820312 C 194.605469 141.121094 194.238281 141.324219 193.851562 141.3125 C 193.304688 141.304688 192.824219 141.019531 192.332031 140.820312 C 191.671875 140.554688 190.84375 140.953125 190.65625 141.640625 C 190.511719 142.101562 190.699219 142.570312 190.910156 142.976562 C 191.0625 143.292969 191.285156 143.6875 191.070312 144.027344 C 190.839844 144.300781 190.554688 144.539062 190.398438 144.871094 C 190.164062 145.277344 190.136719 145.855469 190.515625 146.191406 C 190.949219 146.550781 191.566406 146.707031 191.875 147.210938 C 192.003906 147.441406 191.796875 147.667969 191.742188 147.890625 C 191.523438 148.679688 191.949219 149.601562 192.703125 149.9375 C 193.277344 150.199219 193.941406 150.121094 194.519531 149.917969 C 194.921875 149.777344 195.316406 149.523438 195.496094 149.121094 C 195.730469 148.636719 195.617188 148.082031 195.75 147.578125 C 195.8125 147.324219 196.039062 147.144531 196.292969 147.113281 C 197.121094 146.976562 198.011719 146.898438 198.71875 146.402344 C 199.160156 146.105469 199.398438 145.550781 199.339844 145.023438 C 199.289062 144.542969 199.164062 144.007812 198.75 143.710938 C 198.386719 143.425781 197.894531 143.40625 197.523438 143.144531 C 197.253906 142.890625 197.441406 142.496094 197.574219 142.222656 C 197.882812 141.640625 197.847656 140.898438 197.476562 140.355469 C 197.179688 139.890625 196.566406 139.632812 196.039062 139.835938 M 206.410156 139.835938 C 205.957031 139.992188 205.554688 140.378906 205.5 140.875 C 205.453125 141.242188 205.765625 141.546875 205.722656 141.917969 C 205.726562 142.265625 205.394531 142.484375 205.089844 142.558594 C 204.625 142.667969 204.199219 142.992188 204.070312 143.464844 C 203.867188 144.125 204.296875 144.84375 204.910156 145.097656 C 205.449219 145.328125 206.074219 145.53125 206.398438 146.0625 C 206.542969 146.296875 206.441406 146.585938 206.242188 146.757812 C 205.632812 147.371094 205.375 148.351562 205.730469 149.160156 C 206.074219 149.949219 206.769531 150.617188 207.613281 150.824219 C 208.75 151.105469 210.007812 150.410156 210.433594 149.332031 C 210.597656 148.875 210.757812 148.390625 211.132812 148.058594 C 211.457031 147.761719 211.917969 147.699219 212.34375 147.703125 C 213.292969 147.730469 214.21875 147.273438 214.835938 146.566406 C 215.246094 146.097656 215.527344 145.449219 215.363281 144.824219 C 215.207031 144.183594 214.675781 143.722656 214.121094 143.414062 C 213.609375 143.125 213 143.15625 212.433594 143.15625 C 212.222656 143.144531 211.949219 143.164062 211.835938 142.949219 C 211.765625 142.640625 211.933594 142.351562 212.042969 142.078125 C 212.253906 141.578125 212.28125 140.957031 211.976562 140.488281 C 211.792969 140.207031 211.445312 140.0625 211.113281 140.097656 C 210.605469 140.144531 210.152344 140.421875 209.738281 140.703125 C 209.320312 140.988281 208.742188 141.015625 208.296875 140.773438 C 207.960938 140.613281 207.734375 140.308594 207.488281 140.046875 C 207.214844 139.757812 206.769531 139.707031 206.410156 139.835938 M 214.910156 151.070312 C 214.421875 151.207031 214.152344 151.71875 214.109375 152.195312 C 214.019531 152.777344 214.273438 153.425781 213.929688 153.957031 C 213.78125 154.222656 213.449219 154.226562 213.1875 154.261719 C 212.667969 154.328125 212.191406 154.703125 212.058594 155.214844 C 211.847656 155.917969 212.265625 156.703125 212.910156 157.015625 C 213.582031 157.289062 214.253906 157.902344 214.167969 158.691406 C 214.027344 159.355469 214.296875 160.054688 214.777344 160.511719 C 215.332031 161.058594 216.210938 161.199219 216.933594 160.945312 C 217.761719 160.601562 218.113281 159.628906 218.097656 158.789062 C 218.113281 158.421875 217.832031 158.128906 217.832031 157.765625 C 217.804688 157.402344 217.945312 156.984375 218.292969 156.820312 C 218.644531 156.632812 219.054688 156.761719 219.433594 156.703125 C 219.964844 156.640625 220.449219 156.304688 220.726562 155.847656 C 221.15625 155.132812 221.144531 154.121094 220.566406 153.484375 C 220.207031 153.082031 219.652344 152.933594 219.132812 152.925781 C 218.550781 152.894531 217.914062 153.015625 217.386719 152.707031 C 216.953125 152.464844 216.835938 151.941406 216.492188 151.613281 C 216.09375 151.203125 215.488281 150.914062 214.910156 151.070312 M 199.003906 155.570312 C 197.824219 155.84375 196.6875 156.40625 195.824219 157.265625 C 195.113281 158.027344 194.492188 158.882812 194.027344 159.820312 C 193.363281 161.148438 193.042969 162.691406 193.351562 164.160156 C 193.539062 164.925781 194.035156 165.691406 194.816406 165.949219 C 195.175781 166.085938 195.660156 165.980469 195.828125 165.601562 C 196.488281 164.367188 197.335938 163.203125 198.46875 162.363281 C 199.628906 161.488281 201.027344 161.007812 202.433594 160.695312 C 203.109375 160.570312 203.710938 160.101562 203.988281 159.472656 C 204.296875 158.804688 204.226562 158 203.867188 157.371094 C 203.476562 156.671875 202.820312 156.152344 202.101562 155.820312 C 201.136719 155.375 200.027344 155.34375 199.003906 155.570312 Z M 199.003906 155.570312 " fill-opacity="1" fill-rule="nonzero"/></g><path fill="#aad4e6" d="M 159.464844 141.585938 C 161.371094 139.839844 163.976562 138.976562 166.539062 139 C 166.707031 141.8125 167.097656 144.671875 168.300781 147.25 C 167.195312 148.359375 166.632812 149.847656 166.023438 151.257812 C 165.773438 151.871094 165.550781 152.496094 165.359375 153.128906 C 163.507812 152.566406 161.632812 152.019531 159.699219 151.828125 C 158.441406 151.691406 157.171875 151.734375 155.925781 151.949219 C 155.304688 148.203125 156.636719 144.144531 159.464844 141.582031 Z M 159.464844 141.585938 " fill-opacity="1" fill-rule="nonzero"/><path fill="#aad4e6" d="M 180.101562 143.050781 C 180.773438 141.277344 182.394531 139.964844 184.203125 139.453125 C 185.226562 148.527344 186.253906 157.597656 187.277344 166.667969 C 187.316406 166.875 187.269531 167.128906 187.457031 167.277344 C 191.46875 171.375 195.472656 175.484375 199.496094 179.578125 C 200.289062 180.386719 201.144531 181.183594 201.652344 182.214844 C 201.921875 182.75 202.054688 183.386719 201.863281 183.96875 C 201.652344 184.566406 201.183594 185.050781 200.636719 185.355469 C 200.042969 185.683594 199.308594 185.625 198.710938 185.351562 C 197.699219 184.890625 196.90625 184.089844 196.140625 183.308594 C 193.519531 180.703125 190.910156 178.09375 188.285156 175.492188 C 188.480469 177.476562 188.738281 179.453125 188.941406 181.4375 C 189 182.347656 189.023438 183.285156 188.742188 184.164062 C 188.585938 184.664062 188.246094 185.125 187.75 185.328125 C 187.101562 185.589844 186.300781 185.542969 185.738281 185.105469 C 185.195312 184.6875 184.878906 184.054688 184.660156 183.425781 C 184.25 182.242188 184.1875 180.980469 184.042969 179.746094 C 183.707031 176.582031 183.355469 173.421875 183.027344 170.257812 C 178.703125 165.914062 174.34375 161.601562 170.050781 157.230469 C 170.582031 155.367188 171.25 153.503906 172.414062 151.9375 C 175.65625 155.21875 178.882812 158.515625 182.109375 161.8125 C 181.445312 155.558594 180.75 149.304688 180.097656 143.050781 Z M 180.101562 143.050781 " fill-opacity="1" fill-rule="nonzero"/><g clip-path="url(#466b8e9ca9)"><path fill="#aad4e6" d="M 149.597656 151.707031 C 150.585938 149.488281 152.261719 147.652344 154.113281 146.121094 C 153.671875 147.234375 153.578125 148.449219 153.496094 149.632812 C 153.414062 151.609375 153.496094 153.648438 154.183594 155.527344 C 154.453125 156.328125 155.035156 156.953125 155.425781 157.691406 C 155.734375 158.269531 156.007812 158.890625 156.039062 159.554688 C 156.0625 159.976562 155.925781 160.445312 155.550781 160.683594 C 155.238281 160.890625 154.835938 160.816406 154.507812 160.691406 C 153.851562 160.433594 153.378906 159.828125 153.183594 159.160156 C 153.015625 158.648438 153.015625 158.105469 153.015625 157.574219 C 152.988281 156.863281 152.847656 156.140625 152.496094 155.515625 C 152.386719 155.3125 152.222656 155.140625 152.027344 155.019531 C 151.75 155.722656 152.007812 156.472656 152.0625 157.195312 C 152.089844 157.558594 152.125 158.003906 151.824219 158.269531 C 151.417969 158.542969 150.882812 158.429688 150.480469 158.207031 C 149.753906 157.792969 149.296875 157.027344 149.0625 156.242188 C 148.632812 154.730469 148.976562 153.113281 149.597656 151.707031 Z M 149.597656 151.707031 " fill-opacity="1" fill-rule="nonzero"/></g><path fill="#aad4e6" d="M 177.78125 147.242188 C 177.945312 147.046875 178.09375 146.832031 178.3125 146.691406 C 178.707031 150.015625 179.097656 153.339844 179.484375 156.667969 C 178.128906 155.304688 176.777344 153.945312 175.421875 152.589844 C 175.21875 152.363281 174.960938 152.175781 174.796875 151.921875 C 175.667969 150.289062 176.605469 148.679688 177.78125 147.242188 Z M 177.78125 147.242188 " fill-opacity="1" fill-rule="nonzero"/><path fill="#aad4e6" d="M 167.628906 151.535156 C 168 150.535156 168.765625 149.765625 169.476562 149 C 170.0625 149.589844 170.664062 150.167969 171.246094 150.765625 C 170.0625 152.332031 169.492188 154.238281 168.890625 156.078125 C 168.292969 155.488281 167.703125 154.890625 167.109375 154.300781 C 167.144531 153.359375 167.316406 152.421875 167.628906 151.535156 Z M 167.628906 151.535156 " fill-opacity="1" fill-rule="nonzero"/><path fill="#aad4e6" d="M 171.71875 161.3125 C 174.902344 164.445312 178.105469 167.5625 181.277344 170.707031 C 181.5 172.351562 181.632812 174.015625 181.824219 175.671875 C 182.046875 177.78125 182.269531 179.890625 182.496094 182 C 179.691406 180.859375 177.171875 179.082031 175.046875 176.933594 C 172.871094 174.675781 171.730469 171.59375 171.40625 168.507812 C 171.140625 166.113281 171.300781 163.683594 171.71875 161.3125 M 177.289062 170.652344 C 176.828125 170.753906 176.617188 171.289062 176.128906 171.332031 C 175.664062 171.5 175.261719 171.023438 174.800781 171.183594 C 174.308594 171.351562 174.113281 172.050781 174.433594 172.457031 C 174.691406 172.816406 175.269531 172.589844 175.515625 172.96875 C 175.796875 173.53125 175.101562 173.980469 175.21875 174.542969 C 175.34375 175.175781 176.085938 175.636719 176.703125 175.414062 C 176.976562 175.320312 177.152344 175.035156 177.449219 175 C 177.726562 175.085938 177.976562 175.28125 178.28125 175.289062 C 178.890625 175.324219 179.375 174.621094 179.152344 174.058594 C 179.058594 173.769531 178.691406 173.652344 178.671875 173.328125 C 178.648438 172.832031 179.074219 172.414062 178.972656 171.90625 C 178.828125 171.164062 178.089844 170.425781 177.289062 170.652344 Z M 177.289062 170.652344 " fill-opacity="1" fill-rule="nonzero"/><path fill="#aad4e6" d="M 190.683594 180.175781 C 191.625 181.089844 192.566406 182.007812 193.503906 182.925781 C 193.640625 183.011719 193.503906 183.121094 193.410156 183.152344 C 192.582031 183.613281 191.617188 183.753906 190.683594 183.691406 C 190.6875 182.519531 190.6875 181.347656 190.683594 180.175781 Z M 190.683594 180.175781 " fill-opacity="1" fill-rule="nonzero"/></svg>