<svg xmlns="http://www.w3.org/2000/svg" xmlns:xlink="http://www.w3.org/1999/xlink" width="500" zoomAndPan="magnify" viewBox="0 0 375 374.999991" height="500" preserveAspectRatio="xMidYMid meet" version="1.0"><defs><clipPath id="1a42d49073"><path d="M 46.355469 46.355469 L 328.355469 46.355469 L 328.355469 328.355469 L 46.355469 328.355469 Z M 46.355469 46.355469 " clip-rule="nonzero"/></clipPath><clipPath id="36389842f9"><path d="M 58.984375 59.515625 L 316.234375 59.515625 L 316.234375 316.765625 L 58.984375 316.765625 Z M 58.984375 59.515625 " clip-rule="nonzero"/></clipPath><clipPath id="4db3cb7238"><path d="M 99.636719 83.382812 L 257.136719 83.382812 L 257.136719 285.882812 L 99.636719 285.882812 Z M 99.636719 83.382812 " clip-rule="nonzero"/></clipPath><clipPath id="ad29ba5cf1"><path d="M 112.109375 90.25 L 262.859375 90.25 L 262.859375 284.5 L 112.109375 284.5 Z M 112.109375 90.25 " clip-rule="nonzero"/></clipPath></defs><g clip-path="url(#1a42d49073)"><path fill="#ff8210" d="M 328.636719 187.496094 C 328.636719 189.804688 328.578125 192.113281 328.464844 194.421875 C 328.351562 196.726562 328.183594 199.03125 327.957031 201.328125 C 327.730469 203.628906 327.445312 205.917969 327.109375 208.203125 C 326.769531 210.488281 326.375 212.765625 325.921875 215.03125 C 325.472656 217.296875 324.96875 219.546875 324.40625 221.789062 C 323.84375 224.03125 323.230469 226.253906 322.558594 228.464844 C 321.886719 230.675781 321.164062 232.867188 320.386719 235.042969 C 319.605469 237.21875 318.777344 239.375 317.890625 241.507812 C 317.007812 243.640625 316.070312 245.753906 315.085938 247.839844 C 314.097656 249.929688 313.058594 251.992188 311.96875 254.027344 C 310.882812 256.066406 309.742188 258.074219 308.554688 260.054688 C 307.367188 262.035156 306.132812 263.988281 304.847656 265.910156 C 303.566406 267.828125 302.234375 269.71875 300.859375 271.574219 C 299.484375 273.425781 298.0625 275.25 296.597656 277.035156 C 295.132812 278.820312 293.625 280.566406 292.074219 282.277344 C 290.523438 283.992188 288.929688 285.664062 287.296875 287.296875 C 285.664062 288.929688 283.992188 290.523438 282.277344 292.074219 C 280.566406 293.625 278.820312 295.132812 277.035156 296.597656 C 275.25 298.0625 273.425781 299.484375 271.574219 300.859375 C 269.71875 302.234375 267.828125 303.566406 265.910156 304.847656 C 263.988281 306.132812 262.035156 307.367188 260.054688 308.554688 C 258.074219 309.742188 256.066406 310.882812 254.027344 311.96875 C 251.992188 313.058594 249.929688 314.097656 247.839844 315.085938 C 245.753906 316.070312 243.640625 317.007812 241.507812 317.890625 C 239.371094 318.777344 237.21875 319.605469 235.042969 320.386719 C 232.867188 321.164062 230.675781 321.886719 228.464844 322.558594 C 226.253906 323.230469 224.03125 323.84375 221.789062 324.40625 C 219.546875 324.96875 217.296875 325.472656 215.03125 325.921875 C 212.765625 326.375 210.488281 326.769531 208.203125 327.109375 C 205.917969 327.445312 203.628906 327.730469 201.328125 327.957031 C 199.03125 328.183594 196.726562 328.351562 194.421875 328.464844 C 192.113281 328.578125 189.804688 328.636719 187.496094 328.636719 C 185.183594 328.636719 182.875 328.578125 180.570312 328.464844 C 178.261719 328.351562 175.960938 328.183594 173.660156 327.957031 C 171.363281 327.730469 169.070312 327.445312 166.785156 327.109375 C 164.5 326.769531 162.226562 326.375 159.960938 325.921875 C 157.695312 325.472656 155.441406 324.96875 153.199219 324.40625 C 150.960938 323.84375 148.734375 323.230469 146.523438 322.558594 C 144.3125 321.886719 142.121094 321.164062 139.945312 320.386719 C 137.769531 319.605469 135.617188 318.777344 133.484375 317.890625 C 131.347656 317.007812 129.238281 316.070312 127.148438 315.085938 C 125.0625 314.097656 123 313.058594 120.960938 311.96875 C 118.925781 310.882812 116.914062 309.742188 114.933594 308.554688 C 112.953125 307.367188 111.003906 306.132812 109.082031 304.847656 C 107.160156 303.566406 105.273438 302.234375 103.417969 300.859375 C 101.5625 299.484375 99.742188 298.0625 97.957031 296.597656 C 96.171875 295.132812 94.421875 293.625 92.710938 292.074219 C 91 290.523438 89.328125 288.929688 87.695312 287.296875 C 86.058594 285.664062 84.46875 283.992188 82.917969 282.277344 C 81.367188 280.566406 79.855469 278.820312 78.390625 277.035156 C 76.925781 275.246094 75.503906 273.425781 74.128906 271.574219 C 72.753906 269.71875 71.425781 267.828125 70.140625 265.910156 C 68.859375 263.988281 67.621094 262.035156 66.433594 260.054688 C 65.246094 258.074219 64.109375 256.066406 63.019531 254.027344 C 61.929688 251.992188 60.894531 249.929688 59.90625 247.839844 C 58.917969 245.753906 57.980469 243.640625 57.097656 241.507812 C 56.214844 239.375 55.382812 237.21875 54.605469 235.042969 C 53.828125 232.867188 53.101562 230.675781 52.433594 228.464844 C 51.761719 226.253906 51.144531 224.03125 50.585938 221.789062 C 50.023438 219.546875 49.515625 217.296875 49.066406 215.03125 C 48.617188 212.765625 48.222656 210.488281 47.882812 208.203125 C 47.542969 205.917969 47.261719 203.628906 47.035156 201.328125 C 46.808594 199.03125 46.636719 196.726562 46.523438 194.421875 C 46.410156 192.113281 46.355469 189.804688 46.355469 187.496094 C 46.355469 185.183594 46.410156 182.875 46.523438 180.570312 C 46.636719 178.261719 46.808594 175.960938 47.035156 173.660156 C 47.261719 171.363281 47.542969 169.070312 47.882812 166.785156 C 48.222656 164.5 48.617188 162.226562 49.066406 159.960938 C 49.515625 157.695312 50.023438 155.441406 50.585938 153.199219 C 51.144531 150.960938 51.761719 148.734375 52.433594 146.523438 C 53.101562 144.3125 53.828125 142.121094 54.605469 139.945312 C 55.382812 137.769531 56.214844 135.617188 57.097656 133.484375 C 57.980469 131.347656 58.917969 129.238281 59.90625 127.148438 C 60.894531 125.0625 61.929688 123 63.019531 120.960938 C 64.109375 118.925781 65.246094 116.914062 66.433594 114.933594 C 67.621094 112.953125 68.859375 111.003906 70.140625 109.082031 C 71.425781 107.160156 72.753906 105.273438 74.128906 103.417969 C 75.503906 101.5625 76.925781 99.742188 78.390625 97.957031 C 79.855469 96.171875 81.367188 94.421875 82.917969 92.710938 C 84.46875 91 86.058594 89.328125 87.695312 87.695312 C 89.328125 86.058594 91 84.46875 92.710938 82.917969 C 94.421875 81.367188 96.171875 79.855469 97.957031 78.390625 C 99.742188 76.925781 101.5625 75.503906 103.417969 74.128906 C 105.273438 72.753906 107.160156 71.425781 109.082031 70.140625 C 111.003906 68.859375 112.953125 67.621094 114.933594 66.433594 C 116.914062 65.246094 118.925781 64.109375 120.960938 63.019531 C 123 61.929688 125.0625 60.894531 127.148438 59.90625 C 129.238281 58.917969 131.347656 57.980469 133.484375 57.097656 C 135.617188 56.214844 137.769531 55.382812 139.945312 54.605469 C 142.121094 53.828125 144.3125 53.101562 146.523438 52.433594 C 148.734375 51.761719 150.960938 51.144531 153.199219 50.585938 C 155.441406 50.023438 157.695312 49.515625 159.960938 49.066406 C 162.226562 48.617188 164.5 48.222656 166.785156 47.882812 C 169.070312 47.542969 171.363281 47.261719 173.660156 47.035156 C 175.960938 46.808594 178.261719 46.636719 180.570312 46.523438 C 182.875 46.410156 185.183594 46.355469 187.496094 46.355469 C 189.804688 46.355469 192.113281 46.410156 194.421875 46.523438 C 196.726562 46.636719 199.03125 46.808594 201.328125 47.035156 C 203.628906 47.261719 205.917969 47.542969 208.203125 47.882812 C 210.488281 48.222656 212.765625 48.617188 215.03125 49.066406 C 217.296875 49.515625 219.546875 50.023438 221.789062 50.585938 C 224.03125 51.144531 226.253906 51.761719 228.464844 52.433594 C 230.675781 53.101562 232.867188 53.828125 235.042969 54.605469 C 237.21875 55.382812 239.375 56.214844 241.507812 57.097656 C 243.640625 57.980469 245.753906 58.917969 247.839844 59.90625 C 249.929688 60.894531 251.992188 61.929688 254.027344 63.019531 C 256.066406 64.109375 258.074219 65.246094 260.054688 66.433594 C 262.035156 67.621094 263.988281 68.859375 265.910156 70.140625 C 267.828125 71.425781 269.71875 72.753906 271.574219 74.128906 C 273.425781 75.503906 275.25 76.925781 277.035156 78.390625 C 278.820312 79.855469 280.566406 81.367188 282.277344 82.917969 C 283.992188 84.46875 285.664062 86.058594 287.296875 87.695312 C 288.929688 89.328125 290.523438 91 292.074219 92.710938 C 293.625 94.421875 295.132812 96.171875 296.597656 97.957031 C 298.0625 99.742188 299.484375 101.5625 300.859375 103.417969 C 302.234375 105.273438 303.566406 107.160156 304.847656 109.082031 C 306.132812 111.003906 307.367188 112.953125 308.554688 114.933594 C 309.742188 116.914062 310.882812 118.925781 311.96875 120.960938 C 313.058594 123 314.097656 125.0625 315.085938 127.148438 C 316.070312 129.238281 317.007812 131.347656 317.890625 133.484375 C 318.777344 135.617188 319.605469 137.769531 320.386719 139.945312 C 321.164062 142.121094 321.886719 144.3125 322.558594 146.523438 C 323.230469 148.734375 323.84375 150.960938 324.40625 153.199219 C 324.96875 155.441406 325.472656 157.695312 325.921875 159.960938 C 326.375 162.226562 326.769531 164.5 327.109375 166.785156 C 327.445312 169.070312 327.730469 171.363281 327.957031 173.660156 C 328.183594 175.960938 328.351562 178.261719 328.464844 180.570312 C 328.578125 182.875 328.636719 185.183594 328.636719 187.496094 Z M 328.636719 187.496094 " fill-opacity="1" fill-rule="nonzero"/></g><g clip-path="url(#36389842f9)"><path fill="#ed5f1e" d="M 316.011719 188.03125 C 316.011719 190.132812 315.960938 192.234375 315.859375 194.335938 C 315.753906 196.4375 315.601562 198.535156 315.394531 200.625 C 315.1875 202.71875 314.929688 204.804688 314.621094 206.886719 C 314.3125 208.96875 313.953125 211.039062 313.542969 213.101562 C 313.132812 215.164062 312.671875 217.214844 312.160156 219.257812 C 311.648438 221.296875 311.089844 223.324219 310.480469 225.335938 C 309.867188 227.347656 309.207031 229.34375 308.5 231.324219 C 307.792969 233.304688 307.035156 235.265625 306.230469 237.210938 C 305.425781 239.152344 304.574219 241.074219 303.671875 242.976562 C 302.773438 244.878906 301.828125 246.757812 300.835938 248.609375 C 299.847656 250.464844 298.808594 252.296875 297.726562 254.097656 C 296.648438 255.902344 295.523438 257.679688 294.355469 259.429688 C 293.183594 261.175781 291.976562 262.894531 290.722656 264.585938 C 289.46875 266.273438 288.175781 267.933594 286.839844 269.558594 C 285.507812 271.183594 284.132812 272.777344 282.722656 274.335938 C 281.308594 275.894531 279.859375 277.414062 278.371094 278.902344 C 276.882812 280.390625 275.363281 281.839844 273.804688 283.253906 C 272.246094 284.664062 270.652344 286.039062 269.027344 287.371094 C 267.402344 288.707031 265.742188 290 264.054688 291.253906 C 262.363281 292.507812 260.644531 293.714844 258.898438 294.886719 C 257.148438 296.054688 255.371094 297.179688 253.566406 298.257812 C 251.765625 299.339844 249.933594 300.378906 248.078125 301.367188 C 246.226562 302.359375 244.347656 303.304688 242.445312 304.203125 C 240.542969 305.105469 238.621094 305.957031 236.679688 306.761719 C 234.734375 307.566406 232.773438 308.324219 230.792969 309.03125 C 228.8125 309.738281 226.816406 310.398438 224.804688 311.011719 C 222.792969 311.621094 220.765625 312.179688 218.726562 312.691406 C 216.683594 313.203125 214.632812 313.664062 212.570312 314.074219 C 210.507812 314.484375 208.4375 314.84375 206.355469 315.152344 C 204.273438 315.460938 202.1875 315.71875 200.09375 315.925781 C 198.003906 316.132812 195.90625 316.285156 193.804688 316.390625 C 191.703125 316.492188 189.601562 316.542969 187.5 316.542969 C 185.394531 316.542969 183.292969 316.492188 181.191406 316.390625 C 179.09375 316.285156 176.996094 316.132812 174.902344 315.925781 C 172.808594 315.71875 170.722656 315.460938 168.640625 315.152344 C 166.5625 314.84375 164.488281 314.484375 162.425781 314.074219 C 160.363281 313.664062 158.3125 313.203125 156.273438 312.691406 C 154.230469 312.179688 152.207031 311.621094 150.191406 311.011719 C 148.179688 310.398438 146.183594 309.738281 144.203125 309.03125 C 142.222656 308.324219 140.261719 307.566406 138.320312 306.761719 C 136.375 305.957031 134.453125 305.105469 132.550781 304.203125 C 130.652344 303.304688 128.773438 302.359375 126.917969 301.367188 C 125.0625 300.378906 123.234375 299.339844 121.429688 298.257812 C 119.625 297.179688 117.847656 296.054688 116.101562 294.886719 C 114.351562 293.714844 112.632812 292.507812 110.941406 291.253906 C 109.253906 290 107.597656 288.707031 105.96875 287.371094 C 104.34375 286.039062 102.753906 284.664062 101.195312 283.253906 C 99.636719 281.839844 98.113281 280.390625 96.625 278.902344 C 95.136719 277.414062 93.6875 275.894531 92.277344 274.335938 C 90.863281 272.777344 89.492188 271.183594 88.15625 269.558594 C 86.820312 267.933594 85.527344 266.273438 84.277344 264.585938 C 83.023438 262.894531 81.8125 261.175781 80.644531 259.429688 C 79.476562 257.679688 78.351562 255.902344 77.269531 254.097656 C 76.1875 252.296875 75.152344 250.464844 74.160156 248.609375 C 73.167969 246.757812 72.222656 244.878906 71.324219 242.976562 C 70.425781 241.074219 69.574219 239.152344 68.765625 237.210938 C 67.960938 235.265625 67.207031 233.304688 66.496094 231.324219 C 65.789062 229.34375 65.128906 227.347656 64.519531 225.335938 C 63.910156 223.324219 63.347656 221.296875 62.835938 219.257812 C 62.324219 217.214844 61.863281 215.164062 61.453125 213.101562 C 61.042969 211.039062 60.683594 208.96875 60.375 206.886719 C 60.066406 204.804688 59.808594 202.71875 59.605469 200.625 C 59.398438 198.535156 59.242188 196.4375 59.140625 194.335938 C 59.035156 192.234375 58.984375 190.132812 58.984375 188.03125 C 58.984375 185.925781 59.035156 183.824219 59.140625 181.722656 C 59.242188 179.625 59.398438 177.527344 59.605469 175.433594 C 59.808594 173.339844 60.066406 171.253906 60.375 169.171875 C 60.683594 167.09375 61.042969 165.019531 61.453125 162.957031 C 61.863281 160.894531 62.324219 158.84375 62.835938 156.804688 C 63.347656 154.761719 63.910156 152.738281 64.519531 150.722656 C 65.128906 148.710938 65.789062 146.714844 66.496094 144.734375 C 67.207031 142.753906 67.960938 140.792969 68.765625 138.851562 C 69.574219 136.90625 70.425781 134.984375 71.324219 133.082031 C 72.222656 131.183594 73.167969 129.304688 74.160156 127.449219 C 75.152344 125.59375 76.1875 123.765625 77.269531 121.960938 C 78.351562 120.15625 79.476562 118.378906 80.644531 116.632812 C 81.8125 114.882812 83.023438 113.164062 84.277344 111.472656 C 85.527344 109.785156 86.820312 108.128906 88.15625 106.5 C 89.492188 104.875 90.863281 103.285156 92.277344 101.726562 C 93.6875 100.167969 95.136719 98.644531 96.625 97.15625 C 98.113281 95.667969 99.636719 94.21875 101.195312 92.808594 C 102.753906 91.394531 104.34375 90.023438 105.96875 88.6875 C 107.597656 87.351562 109.253906 86.058594 110.941406 84.808594 C 112.632812 83.554688 114.351562 82.34375 116.101562 81.175781 C 117.847656 80.007812 119.625 78.882812 121.429688 77.800781 C 123.234375 76.71875 125.0625 75.683594 126.917969 74.691406 C 128.773438 73.699219 130.652344 72.753906 132.550781 71.855469 C 134.453125 70.957031 136.375 70.105469 138.320312 69.296875 C 140.261719 68.492188 142.222656 67.738281 144.203125 67.027344 C 146.183594 66.320312 148.179688 65.660156 150.191406 65.050781 C 152.207031 64.441406 154.230469 63.878906 156.273438 63.367188 C 158.3125 62.855469 160.363281 62.394531 162.425781 61.984375 C 164.488281 61.574219 166.5625 61.214844 168.640625 60.90625 C 170.722656 60.597656 172.808594 60.339844 174.902344 60.136719 C 176.996094 59.929688 179.09375 59.773438 181.191406 59.671875 C 183.292969 59.566406 185.394531 59.515625 187.5 59.515625 C 189.601562 59.515625 191.703125 59.566406 193.804688 59.671875 C 195.90625 59.773438 198.003906 59.929688 200.09375 60.136719 C 202.1875 60.339844 204.273438 60.597656 206.355469 60.90625 C 208.4375 61.214844 210.507812 61.574219 212.570312 61.984375 C 214.632812 62.394531 216.683594 62.855469 218.726562 63.367188 C 220.765625 63.878906 222.792969 64.441406 224.804688 65.050781 C 226.816406 65.660156 228.8125 66.320312 230.792969 67.027344 C 232.773438 67.738281 234.734375 68.492188 236.679688 69.296875 C 238.621094 70.105469 240.542969 70.957031 242.445312 71.855469 C 244.347656 72.753906 246.226562 73.699219 248.078125 74.691406 C 249.933594 75.683594 251.765625 76.71875 253.566406 77.800781 C 255.371094 78.882812 257.148438 80.007812 258.898438 81.175781 C 260.644531 82.34375 262.363281 83.554688 264.054688 84.808594 C 265.742188 86.058594 267.402344 87.351562 269.027344 88.6875 C 270.652344 90.023438 272.246094 91.394531 273.804688 92.808594 C 275.363281 94.21875 276.882812 95.667969 278.371094 97.15625 C 279.859375 98.644531 281.308594 100.167969 282.722656 101.726562 C 284.132812 103.285156 285.507812 104.875 286.839844 106.5 C 288.175781 108.128906 289.46875 109.785156 290.722656 111.472656 C 291.976562 113.164062 293.183594 114.882812 294.355469 116.632812 C 295.523438 118.378906 296.648438 120.15625 297.726562 121.960938 C 298.808594 123.765625 299.847656 125.59375 300.835938 127.449219 C 301.828125 129.304688 302.773438 131.183594 303.671875 133.082031 C 304.574219 134.984375 305.425781 136.90625 306.230469 138.851562 C 307.035156 140.792969 307.792969 142.753906 308.5 144.734375 C 309.207031 146.714844 309.867188 148.710938 310.480469 150.722656 C 311.089844 152.738281 311.648438 154.761719 312.160156 156.804688 C 312.671875 158.84375 313.132812 160.894531 313.542969 162.957031 C 313.953125 165.019531 314.3125 167.09375 314.621094 169.171875 C 314.929688 171.253906 315.1875 173.339844 315.394531 175.433594 C 315.601562 177.527344 315.753906 179.625 315.859375 181.722656 C 315.960938 183.824219 316.011719 185.925781 316.011719 188.03125 Z M 316.011719 188.03125 " fill-opacity="1" fill-rule="nonzero"/></g><g clip-path="url(#4db3cb7238)"><path fill="#000000" d="M 257.136719 270.589844 C 257.136719 216.550781 221.851562 172.773438 178.386719 172.773438 C 134.925781 172.773438 99.640625 216.550781 99.640625 270.589844 C 99.640625 279.015625 134.925781 285.882812 178.386719 285.882812 C 221.851562 285.882812 257.136719 279.015625 257.136719 270.589844 Z M 178.386719 83.382812 C 202.097656 83.382812 221.300781 102.527344 221.300781 126.15625 C 221.300781 149.785156 202.097656 168.925781 178.386719 168.925781 C 154.679688 168.925781 135.476562 149.785156 135.476562 126.15625 C 135.476562 102.527344 154.679688 83.382812 178.386719 83.382812 Z M 178.386719 83.382812 " fill-opacity="1" fill-rule="evenodd"/></g><g clip-path="url(#ad29ba5cf1)"><path fill="#aad4e6" d="M 262.882812 270.050781 C 262.882812 218.152344 229.105469 176.105469 187.496094 176.105469 C 145.886719 176.105469 112.109375 218.152344 112.109375 270.050781 C 112.109375 278.144531 145.886719 284.742188 187.496094 284.742188 C 229.105469 284.742188 262.882812 278.144531 262.882812 270.050781 Z M 187.496094 90.25 C 210.191406 90.25 228.574219 108.636719 228.574219 131.332031 C 228.574219 154.027344 210.191406 172.410156 187.496094 172.410156 C 164.800781 172.410156 146.414062 154.027344 146.414062 131.332031 C 146.414062 108.636719 164.800781 90.25 187.496094 90.25 Z M 187.496094 90.25 " fill-opacity="1" fill-rule="evenodd"/></g></svg>